<?xml version="1.0" encoding="UTF-8"?>
<svg width="24px" height="21px" viewBox="0 0 24 21" version="1.1" xmlns="http://www.w3.org/2000/svg" xmlns:xlink="http://www.w3.org/1999/xlink">
    <title>A0D004DE-34DC-4910-A903-6075386E9EEC</title>
    <g id="Style-Guide" stroke="none" stroke-width="1" fill="none" fill-rule="evenodd">
        <g id="styleguide_v01" transform="translate(-238.000000, -1776.000000)" fill="#91B1C7" fill-rule="nonzero">
            <g id="Icons" transform="translate(100.000000, 1773.000000)">
                <path d="M139.128107,23.9999499 C142.010913,23.9999499 144.284345,22.7952561 145.648386,21.8296518 C147.003088,22.2561949 148.465594,22.4999535 150.003081,22.4999535 C156.631209,22.4999535 162.003052,18.1359197 162.003052,12.7499768 C162.003052,7.36403378 156.631209,3 150.003081,3 C143.374954,3 138.00311,7.36403378 138.00311,12.7499768 C138.00311,14.9812031 138.935938,17.0249757 140.48281,18.670266 C139.88783,20.2435417 138.745225,21.6126952 138.405246,21.9954418 L138.335651,22.0723984 C138.319113,22.0902491 138.309533,22.1001267 138.307796,22.101517 C137.998441,22.4296412 137.914029,22.9077742 138.09219,23.3202641 C138.270306,23.7327539 138.678126,23.9999499 139.128107,23.9999499 Z M139.971855,22.4624628 C140.534354,21.7546245 141.368718,20.568699 141.884341,19.1999431 L142.21718,18.3234193 L141.574985,17.6390184 C140.220283,16.2046652 139.503106,14.5124542 139.503106,12.7499768 C139.503106,8.20311259 144.214032,4.49999642 150.003081,4.49999642 C155.79213,4.49999642 160.503056,8.20311259 160.503056,12.7499768 C160.503056,17.2968409 155.79213,20.9999571 150.003081,20.9999571 C148.676531,20.9999571 147.364034,20.7984042 146.103081,20.3999677 L145.390574,20.1749774 L144.7812,20.6061897 C143.703078,21.370287 142.039019,22.2609099 139.971855,22.4624628 Z M155.628068,11.2499839 C155.834336,11.2499839 156.003067,11.081249 156.003067,10.8749812 L156.003067,10.124983 C156.003067,9.91871519 155.834336,9.74998391 155.628068,9.74998391 L144.378095,9.74998391 C144.171827,9.74998391 144.003095,9.91871519 144.003095,10.124983 L144.003095,10.8749812 C144.003095,11.081249 144.171827,11.2499839 144.378095,11.2499839 L155.628068,11.2499839 Z M151.128078,15.7499732 C151.334346,15.7499732 151.503078,15.5812383 151.503078,15.3749705 L151.503078,14.6249723 C151.503078,14.4187045 151.334346,14.2499732 151.128078,14.2499732 L144.378095,14.2499732 C144.171827,14.2499732 144.003095,14.4187045 144.003095,14.6249723 L144.003095,15.3749705 C144.003095,15.5812383 144.171827,15.7499732 144.378095,15.7499732 L151.128078,15.7499732 Z" id="chat-icon-blue"></path>
            </g>
        </g>
    </g>
</svg>