<?xml version="1.0" encoding="UTF-8"?>
<svg width="16px" height="16px" viewBox="0 0 16 16" version="1.1" xmlns="http://www.w3.org/2000/svg" xmlns:xlink="http://www.w3.org/1999/xlink">
    <title>98B72383-C5F9-4234-AEF1-781AE3866F5E</title>
    <g id="Content" stroke="none" stroke-width="1" fill="none" fill-rule="evenodd">
        <g id="in_the_media_popup_v01" transform="translate(-958.000000, -234.000000)" fill="#999999" fill-rule="nonzero">
            <g id="Close" transform="translate(602.000000, 210.000000)">
                <path d="M357.814025,39.8825273 L364,33.697031 L370.185506,39.8825273 C370.341512,40.0384842 370.595028,40.0384842 370.750985,39.8825273 L371.882527,38.7509846 C372.038484,38.5950276 372.038484,38.3415121 371.882527,38.1855063 L365.697031,32 L371.882527,25.8145136 C372.038484,25.6585078 372.038484,25.4049923 371.882527,25.2490353 L370.750985,24.1174926 C370.595028,23.9615357 370.341512,23.9615357 370.185506,24.1174926 L364,30.3029889 L357.814514,24.1170044 C357.658508,23.9609985 357.404992,23.9609985 357.249035,24.1170044 L356.117004,25.2484982 C355.960999,25.404504 355.960999,25.6580196 356.117004,25.8140254 L362.302989,32 L356.117004,38.1855063 C355.960999,38.3415121 355.960999,38.5950276 356.117004,38.7509846 L357.248498,39.8825273 C357.404504,40.0384842 357.65802,40.0384842 357.814025,39.8825273 Z" id="close-icon"></path>
            </g>
        </g>
    </g>
</svg>