<?xml version="1.0" encoding="UTF-8"?>
<svg width="10px" height="11px" viewBox="0 0 10 11" version="1.1" xmlns="http://www.w3.org/2000/svg" xmlns:xlink="http://www.w3.org/1999/xlink">
    <title>AB40F252-0156-455B-8A68-B7DED7291F5F</title>
    <g id="Ecommerce" stroke="none" stroke-width="1" fill="none" fill-rule="evenodd">
        <g id="search_dropdown_v01" transform="translate(-1038.000000, -38.000000)" fill="#FFFFFF" fill-rule="nonzero">
            <g id="Dropdown" transform="translate(440.000000, 31.000000)">
                <g id="Group" transform="translate(591.000000, 0.000000)">
                    <path d="M16.2196564,17.2602262 L16.9268929,16.5529897 C17.024369,16.4555135 17.024369,16.2970613 16.9268929,16.1995546 L13.0608356,12.3334974 L16.2659225,9.12841054 L16.9268929,8.46744016 C17.024369,8.36993345 17.024369,8.21148122 16.9268929,8.11400503 L16.2196564,7.40676855 C16.1221802,7.30929236 15.963728,7.30929236 15.8662212,7.40676855 L12.000164,11.2728258 L8.13410683,7.40646337 C8.03660011,7.30895666 7.87814789,7.30895666 7.7806717,7.40646337 L7.07313003,8.11366933 C6.97562332,8.21117604 6.97562332,8.36962826 7.07313003,8.46713497 L10.9394924,12.3334974 L7.07313003,16.1995546 C6.97562332,16.2970613 6.97562332,16.4555135 7.07313003,16.5529897 L7.78033599,17.2602262 C7.87784271,17.3577024 8.03629493,17.3577024 8.13380164,17.2602262 L12.000164,13.394169 L15.2052509,16.5992558 L15.8662212,17.2602262 C15.963728,17.3577024 16.1221802,17.3577024 16.2196564,17.2602262 Z" id="close-icon-white"></path>
                </g>
            </g>
        </g>
    </g>
</svg>