<?xml version="1.0" encoding="UTF-8"?>
<svg width="20px" height="20px" viewBox="0 0 20 20" version="1.1" xmlns="http://www.w3.org/2000/svg" xmlns:xlink="http://www.w3.org/1999/xlink">
    <title>8B412DCA-B35E-412C-8CB8-A63E337FAD67</title>
    <g id="Style-Guide" stroke="none" stroke-width="1" fill="none" fill-rule="evenodd" stroke-linecap="round" stroke-linejoin="round">
        <g id="styleguide_v01" transform="translate(-99.000000, -1819.000000)" stroke="#91B1C7" stroke-width="2">
            <g id="Icons" transform="translate(100.000000, 1773.000000)">
                <path d="M17.0898704,60.4962348 L13.9662385,58.4545279 C13.3156568,58.0424413 12.4559589,58.2143247 12.0139686,58.8448543 C11.2931305,59.7155822 10.4221178,61.156787 7.14831133,57.884051 C3.87450488,54.611315 5.28614619,53.7105619 6.15715892,52.9899595 C6.78789469,52.5481138 6.95983428,51.6886969 6.5476129,51.0383279 L4.50523823,47.9157174 C4.23492394,47.5253911 3.87450488,46.894864 3.03352708,47.0149644 C2.19254927,47.1350648 0,48.3660939 0,51.068353 C0,53.7706122 2.13247943,57.0733733 5.04586682,59.9858081 C7.95925421,62.8982429 11.2630956,65 13.9362036,65 C16.6093116,65 17.9008132,62.5979919 17.990918,61.9974899 C18.0810228,61.3969879 17.4803243,60.7664607 17.0898704,60.4962348 Z" id="Path"></path>
            </g>
        </g>
    </g>
</svg>